<svg id="Layer_1" data-name="Layer 1" xmlns="http://www.w3.org/2000/svg" viewBox="0 0 1019.41 452.7"><defs><style>.cls-1{fill:#f85606;}</style></defs><path class="cls-1" d="M1013.12,337.92H968.05l46.72-144.47c1.33-4.31-1-7.29-5.3-7.29H912.39c-4,0-6.3,2.32-6.3,6.3V217c0,4,2.32,6.29,6.3,6.29h39.76l-47,144.47c-1.33,4.31,1,7.29,5.63,7.29h102.39c4,0,6.29-2.32,6.29-6.3V344.21C1019.41,340.24,1017.09,337.92,1013.12,337.92Z"/><path class="cls-1" d="M891.52,345.54V192.46c0-4-2.32-6.3-6.3-6.3H847.78c-4.31,0-6.63,2.32-6.63,6.3v13.25h-3.64c-3.32-13.92-13.26-21.87-31.48-21.87-27.5,0-43.07,17.89-43.07,77.21v39.43c0,59.31,15.24,76.87,43.07,76.87,19.88,0,30.82-9.28,33.8-26.51h4l4.31,18.55c1,3.65,3.31,5.64,7,5.64h34.79c4.64,0,6.3-3,5.63-7Zm-50.37-35.12c0,24.51-4,29.82-13.58,29.82-9.28,0-13.26-5.31-13.26-29.49v-62.3c0-24.52,4.31-29.82,13.26-29.82,9.61,0,13.58,5.3,13.58,30.16Z"/><path class="cls-1" d="M746.72,186.49l-36.11,25.85h-2.32V192.46c0-4-2.32-6.3-6.3-6.3H666.54c-4,0-6.3,2.32-6.3,6.3V368.73c0,4,2.32,6.3,6.3,6.3h37.77c4.31,0,6.3-2.32,6.3-6.3V263l39.76-28.49c3-2.32,4-4.31,4-7.62V190.47C754.34,185.5,750.7,183.51,746.72,186.49Z"/><path class="cls-1" d="M641.69,345.54V192.46c0-4-2.32-6.3-6.3-6.3H598c-4.31,0-6.63,2.32-6.63,6.3v13.25h-3.64c-3.31-13.92-13.25-21.87-31.48-21.87-27.5,0-43.07,17.89-43.07,77.21v39.43c0,59.31,15.24,76.87,43.07,76.87,19.88,0,30.82-9.28,33.8-26.51h4l4.3,18.55c1,3.65,3.32,5.64,7,5.64H640c4.64,0,6.3-3,5.63-7Zm-50.37-35.12c0,24.51-4,29.82-13.58,29.82-9.28,0-13.25-5.31-13.25-29.49v-62.3c0-24.52,4.3-29.82,13.25-29.82,9.61,0,13.58,5.3,13.58,30.16Z"/><path class="cls-1" d="M418.7,123.21H364.36c-4.31,0-6.3,2.32-6.3,6.29V368.73c0,4,2,6.3,6.3,6.3H418.7c54,0,78.86-24.52,78.86-109.35V232.55C497.56,145.41,471.05,123.21,418.7,123.21Zm25.84,165.67c0,37.11-7,44.4-24.52,44.4h-9.94V164H420c17.56,0,24.52,6.3,24.52,44.4Z"/><path class="cls-1" d="M257.45,67.1,144.13,1.83c-6.62-4-11.92-1.33-11.92,6.62V147.62l112.65,64.94c6.63,4,6.63,9.94,0,13.92l-100.73,58c-6.62,4-11.92,1.33-11.92-6.62V147.62L7,219.85c-5,3-7,6.3-7,11.93v138.5c0,5.63,2,9,7,11.93l118.29,68.26c5,3,8.94,3,13.91,0l118.29-68.26c5-3,7-6.3,7-11.93V79C264.41,73.4,262.42,70.08,257.45,67.1Z"/></svg>